<svg width="48" height="150" viewBox="0 0 48 150" fill="none" xmlns="http://www.w3.org/2000/svg">
<path d="M-0.5 0V4.16667H0.5V0H-0.5ZM-0.5 12.5V20.8333H0.5V12.5H-0.5ZM-0.5 29.1667V37.5H0.5V29.1667H-0.5ZM-0.5 45.8333V54.1667H0.5V45.8333H-0.5ZM-0.5 62.5V70.8333H0.5V62.5H-0.5ZM-0.5 79.1667V87.5H0.5V79.1667H-0.5ZM-0.5 95.8333V104.167H0.5V95.8333H-0.5ZM-0.5 112.5V120.833H0.5V112.5H-0.5ZM-0.5 129.167V137.5H0.5V129.167H-0.5ZM-0.5 145.833V150H0.5V145.833H-0.5ZM-1 0V4.16667H1V0H-1ZM-1 12.5V20.8333H1V12.5H-1ZM-1 29.1667V37.5H1V29.1667H-1ZM-1 45.8333V54.1667H1V45.8333H-1ZM-1 62.5V70.8333H1V62.5H-1ZM-1 79.1667V87.5H1V79.1667H-1ZM-1 95.8333V104.167H1V95.8333H-1ZM-1 112.5V120.833H1V112.5H-1ZM-1 129.167V137.5H1V129.167H-1ZM-1 145.833V150H1V145.833H-1Z" fill="#3D3D3D" mask="url(#path-1-inside-1_1030_21818)"/>
<g clip-path="url(#clip0_1030_21818)">
<path d="M27 87H45" stroke="white"/>
<path d="M36 63L36 79" stroke="white"/>
<path d="M30 73L36 79L42 73" stroke="white" stroke-linecap="round"/>
</g>
<defs>
<clipPath id="clip0_1030_21818">
<rect width="24" height="24" fill="white" transform="translate(24 63)"/>
</clipPath>
</defs>
</svg>
