<svg width="16" height="16" viewBox="0 0 16 16" fill="none" xmlns="http://www.w3.org/2000/svg">
<g clip-path="url(#clip0_1780_14207)">
<circle cx="8" cy="8" r="7.5" stroke="black"/>
<path d="M9.91821 11.2803L9.12029 9.86031C8.97524 9.57145 8.77136 9.62262 8.77136 9.62262L8.21242 9.71936C7.3545 8.10208 7.35981 6.62909 7.35981 6.62909L7.89538 6.44763C7.89538 6.44763 8.09893 6.39525 8.07603 6.07533L8.03719 4.46238C8.03719 4.46238 8.06106 3.65057 7.04258 4.1783C7.04258 4.1783 5.32006 4.98762 6.30317 8.55106C7.28628 12.1145 9.20037 11.9996 9.20037 11.9996C10.3575 11.9744 9.91815 11.2803 9.91815 11.2803L9.91821 11.2803Z" fill="black"/>
</g>
<defs>
<clipPath id="clip0_1780_14207">
<rect width="16" height="16" fill="white"/>
</clipPath>
</defs>
</svg>
