<svg width="24" height="24" viewBox="0 0 24 24" fill="none" xmlns="http://www.w3.org/2000/svg">
<path d="M6.5931 1C5.85515 1 5.11428 1.11605 4.4094 1.35713C3.01957 1.83268 0.608097 3.20555 0.0732755 7.05779C-0.319046 9.88446 0.865375 12.8743 3.59379 15.9443C3.97541 16.3737 4.39189 16.8095 4.83155 17.2398C5.53173 17.9247 6.31702 18.6208 7.16521 19.3088C8.09365 20.0615 8.97848 20.6945 9.62451 21.1568C9.96431 21.4 10.2577 21.6098 10.479 21.7805C10.8642 22.0776 11.384 22.4944 12 23C12.6162 22.4944 13.1359 22.0776 13.521 21.7807C13.7423 21.61 14.0357 21.4 14.3755 21.157C15.0215 20.6949 15.9064 20.0617 16.8348 19.3089C17.683 18.621 18.4683 17.9249 19.1686 17.24C19.6081 16.8099 20.0246 16.374 20.4062 15.9446C23.1346 12.8747 24.319 9.88479 23.9267 7.05813C23.3919 3.20589 20.9804 1.83302 19.5906 1.35747C17.1516 0.523093 14.2787 1.18679 12.6044 2.97176L12 3.61595L11.3956 2.97176C10.2052 1.70238 8.40864 1 6.5931 1Z" fill="#FF4A55"/>
</svg>
