<svg width="24" height="24" viewBox="0 0 24 24" fill="none" xmlns="http://www.w3.org/2000/svg">
<g id="ico-line-cupon-default-dark-24px">
<g id="Subtract">
<mask id="path-1-inside-1_850_7659" fill="white">
<path fill-rule="evenodd" clip-rule="evenodd" d="M12 3C13.6569 3 15 1.65685 15 0H21V24H3V0H9C9 1.65685 10.3431 3 12 3Z"/>
</mask>
<path d="M15 0V-2H13V0H15ZM21 0H23V-2H21V0ZM21 24V26H23V24H21ZM3 24H1V26H3V24ZM3 0V-2H1V0H3ZM9 0H11V-2H9V0ZM13 0C13 0.552285 12.5523 1 12 1V5C14.7614 5 17 2.76142 17 0H13ZM15 2H21V-2H15V2ZM19 0V24H23V0H19ZM21 22H3V26H21V22ZM5 24V0H1V24H5ZM3 2H9V-2H3V2ZM12 1C11.4477 1 11 0.552285 11 0H7C7 2.76142 9.23858 5 12 5V1Z" fill="white" mask="url(#path-1-inside-1_850_7659)"/>
</g>
<g id="Frame 6356917">
<rect width="4" height="2" transform="translate(5 11)" fill="white"/>
</g>
<g id="Frame 6356918">
<rect width="4" height="2" transform="translate(10 11)" fill="white"/>
</g>
<g id="Frame 6356919">
<rect width="4" height="2" transform="translate(15 11)" fill="white"/>
</g>
</g>
</svg>
