<svg width="24" height="24" viewBox="0 0 24 24" fill="none" xmlns="http://www.w3.org/2000/svg">
<path d="M7.67812 2.08555L7.67811 2.08557L7.6847 2.08665C9.37526 2.3638 10.4822 3.25163 11.1788 4.23566L11.995 5.38857L12.8112 4.23566C13.5055 3.25496 14.6126 2.37284 16.3102 2.08583L16.3119 2.08555C17.9581 1.80436 19.7521 2.2141 21.0754 3.3306C22.3944 4.44867 23.2238 6.26815 22.9469 8.77502C22.8325 9.78993 22.3009 10.9485 21.5291 12.1585C20.7502 13.3687 19.7303 14.6273 18.6124 15.8569L18.6123 15.857C16.3875 18.3051 13.7801 20.6029 12.061 21.975L12.0596 21.9761C12.0342 21.9964 12.0142 22.0002 11.9981 22C11.9793 21.9997 11.9538 21.9931 11.9273 21.9714L11.9273 21.9714L11.9191 21.9648C10.1998 20.5926 7.60238 18.305 5.37768 15.857L5.37768 15.857L5.37483 15.8539C4.25819 14.6356 3.23071 13.3693 2.46374 12.1629C1.69964 10.9497 1.16763 9.79078 1.05308 8.775C0.776294 6.27894 1.60512 4.45902 2.925 3.34047L2.92501 3.34048L2.92882 3.33722C4.23975 2.2149 6.03087 1.80419 7.67812 2.08555Z" stroke="black" stroke-width="2"/>
</svg>
