<svg width="24" height="24" viewBox="0 0 24 24" fill="none" xmlns="http://www.w3.org/2000/svg">
<g id="ico-line-cupay-default-dark-24px" clip-path="url(#clip0_850_7669)">
<circle id="Ellipse 75" cx="12" cy="12" r="11" stroke="white" stroke-width="2"/>
<path id="Vector" d="M19 11.9939C18.9782 11.4866 18.6032 11.0577 18.0968 11.0577H17.6027C17.8262 10.6287 18.0488 10.1993 18.2697 9.76894C18.4914 9.3368 18.3884 8.73045 17.9458 8.48791C17.5271 8.25849 16.947 8.36211 16.7099 8.82367C15.9779 10.2495 15.2318 11.6672 14.4723 13.0772C14.371 12.8527 14.2715 12.6269 14.175 12.4002C14.1243 12.2812 14.0746 12.1618 14.0252 12.0419C14.0165 12.0201 14.0039 11.9894 13.9943 11.9649C13.9685 11.9002 13.9423 11.8351 13.917 11.7699C13.5184 10.7545 13.1705 9.71871 12.8715 8.66755C12.6183 7.77793 11.3829 7.77703 11.1297 8.66755C10.8307 9.71871 10.4828 10.7545 10.0842 11.7699C10.0637 11.8219 10.0432 11.874 10.0227 11.926C10.024 11.9233 9.98904 12.0088 9.97202 12.0514C9.95499 12.0925 9.92837 12.1577 9.924 12.1681C9.89737 12.2328 9.86987 12.2971 9.84281 12.3613C9.74109 12.6011 9.63676 12.8401 9.52937 13.0772C8.7698 11.6672 8.02376 10.249 7.29126 8.82321C7.06906 8.39017 6.45398 8.22093 6.05543 8.48746C5.63068 8.77118 5.49361 9.30558 5.73152 9.76849C5.9524 10.1988 6.17504 10.6282 6.39854 11.0572H5.90439C5.43162 11.0572 4.97893 11.488 5.00076 11.9939C5.02259 12.5011 5.39757 12.9301 5.90395 12.9301H7.38424C7.84915 13.8039 8.31886 14.6754 8.79425 15.5433C9.12034 16.1388 10.0349 16.1655 10.354 15.5433C10.9734 14.3365 11.5235 13.0899 11.9997 11.8142C12.4764 13.0899 13.026 14.3365 13.6455 15.5433C13.965 16.1655 14.8791 16.1388 15.2052 15.5433C15.6806 14.6754 16.1503 13.8039 16.6152 12.9301H18.0955C18.5678 12.9301 19.0205 12.4993 18.9987 11.9939H19Z" fill="white"/>
</g>
<defs>
<clipPath id="clip0_850_7669">
<rect width="24" height="24" fill="white"/>
</clipPath>
</defs>
</svg>
